# Blender v2.71 (sub 0) OBJ File: ''
# www.blender.org
mtllib ground.mtl
o Plane
v -65.000000 0.000000 65.000000
v 65.000000 0.000000 65.000000
v -65.000000 0.000000 -65.000000
v 65.000000 0.000000 -65.000000
v -65.000000 0.000000 0.000000
v 0.000000 0.000000 65.000000
v 65.000000 0.000000 0.000000
v 0.000000 0.000000 -65.000000
v 0.000000 0.000000 0.000000
v -65.000000 0.000000 32.500000
v 32.500000 0.000000 65.000000
v 65.000000 0.000000 -32.500000
v -32.500000 0.000000 -65.000000
v -65.000000 0.000000 -32.500000
v -32.500000 0.000000 65.000000
v 65.000000 0.000000 32.500000
v 32.500000 0.000000 -65.000000
v 0.000000 0.000000 -32.500000
v 0.000000 0.000000 32.500000
v -32.500000 0.000000 0.000000
v 32.500000 0.000000 0.000000
v 32.500000 0.000000 -32.500000
v -32.500000 0.000000 -32.500000
v -32.500000 0.000000 32.500000
v 32.500000 0.000000 32.500000
v -65.000000 0.000000 48.750000
v 48.750000 0.000000 65.000000
v 65.000000 0.000000 -48.750000
v -48.750000 0.000000 -65.000000
v -65.000000 0.000000 -48.750000
v -48.750000 0.000000 65.000000
v 65.000000 0.000000 48.750000
v 48.750000 0.000000 -65.000000
v 0.000000 0.000000 -48.750000
v 0.000000 0.000000 48.750000
v -48.750000 0.000000 0.000000
v 16.250000 0.000000 0.000000
v -65.000000 0.000000 16.250000
v 16.250000 0.000000 65.000000
v 65.000000 0.000000 -16.250000
v -16.250000 0.000000 -65.000000
v -65.000000 0.000000 -16.250000
v -16.250000 0.000000 65.000000
v 65.000000 0.000000 16.250000
v 16.250000 0.000000 -65.000000
v 0.000000 0.000000 -16.250000
v 0.000000 0.000000 16.250000
v -16.250000 0.000000 0.000000
v 48.750000 0.000000 0.000000
v 32.500000 0.000000 -48.750000
v 32.500000 0.000000 -16.250000
v 16.250000 0.000000 -32.500000
v 48.750000 0.000000 -32.500000
v -32.500000 0.000000 -48.750000
v -32.500000 0.000000 -16.250000
v -48.750000 0.000000 -32.500000
v -16.250000 0.000000 -32.500000
v -32.500000 0.000000 16.250000
v -32.500000 0.000000 48.750000
v -48.750000 0.000000 32.500000
v -16.250000 0.000000 32.500000
v 32.500000 0.000000 16.250000
v 32.500000 0.000000 48.750000
v 16.250000 0.000000 32.500000
v 48.750000 0.000000 32.500000
v 48.750000 0.000000 -48.750000
v -16.250000 0.000000 -48.750000
v -16.250000 0.000000 16.250000
v 48.750000 0.000000 16.250000
v 16.250000 0.000000 -48.750000
v 16.250000 0.000000 -16.250000
v 48.750000 0.000000 -16.250000
v -48.750000 0.000000 -48.750000
v -48.750000 0.000000 -16.250000
v -16.250000 0.000000 -16.250000
v -48.750000 0.000000 16.250000
v -48.750000 0.000000 48.750000
v -16.250000 0.000000 48.750000
v 16.250000 0.000000 16.250000
v 16.250000 0.000000 48.750000
v 48.750000 0.000000 48.750000
vt 7.850575 7.850508
vt 10.300760 7.850500
vt 10.300771 10.300686
vt 7.850584 10.300694
vt -1.950175 7.850524
vt 0.500016 7.850526
vt 0.500016 10.300721
vt -1.950181 10.300719
vt -1.950151 -1.950195
vt 0.500019 -1.950196
vt 0.500019 0.499979
vt -1.950153 0.499977
vt 7.850533 -1.950214
vt 10.300708 -1.950228
vt 10.300722 0.499946
vt 7.850545 0.499961
vt 2.950205 7.850524
vt 5.400390 7.850518
vt 5.400400 10.300703
vt 2.950210 10.300714
vt 2.950199 2.950155
vt 5.400377 2.950149
vt 5.400383 5.400332
vt 2.950201 5.400337
vt 7.850558 2.950140
vt 10.300743 2.950127
vt 10.300752 5.400313
vt 7.850565 5.400323
vt -6.850558 7.850495
vt -4.400366 7.850513
vt -4.400380 10.300710
vt -6.850579 10.300690
vt -6.850511 2.950128
vt -4.400337 2.950144
vt -4.400353 5.400324
vt -6.850535 5.400309
vt -1.950159 2.950154
vt 0.500018 2.950156
vt 0.500017 5.400339
vt -1.950168 5.400337
vt -6.850479 -1.950206
vt -4.400318 -1.950198
vt -4.400325 0.499970
vt -6.850492 0.499957
vt -6.850479 -6.850523
vt -4.400317 -6.850525
vt -4.400316 -4.400363
vt -6.850477 -4.400365
vt -1.950153 -6.850526
vt 0.500012 -6.850531
vt 0.500017 -4.400365
vt -1.950151 -4.400363
vt 2.950192 -1.950198
vt 5.400362 -1.950205
vt 5.400369 0.499970
vt 2.950195 0.499976
vt 2.950180 -6.850534
vt 5.400346 -6.850543
vt 5.400354 -4.400376
vt 2.950186 -4.400370
vt 7.850514 -6.850554
vt 10.300681 -6.850562
vt 10.300690 -4.400396
vt 7.850523 -4.400385
vt -9.300746 7.850471
vt -9.300771 10.300663
vt -9.300718 5.400282
vt -9.300685 2.950103
vt -9.300653 0.499935
vt -9.300629 -1.950217
vt -9.300629 -4.400366
vt -9.300634 -6.850520
vt -9.300639 -9.300676
vt -6.850483 -9.300683
vt -4.400321 -9.300688
vt -1.950156 -9.300693
vt 0.500009 -9.300695
vt 2.950173 -9.300702
vt 5.400338 -9.300711
vt 7.850503 -9.300718
vt 10.300673 -9.300725
vn 0.000000 1.000000 0.000000
usemtl None
s off
f 66/1/1 28/2/1 4/3/1 33/4/1
f 67/5/1 34/6/1 8/7/1 41/8/1
f 68/9/1 47/10/1 9/11/1 48/12/1
f 69/13/1 44/14/1 7/15/1 49/16/1
f 70/17/1 50/18/1 17/19/1 45/20/1
f 71/21/1 51/22/1 22/23/1 52/24/1
f 72/25/1 40/26/1 12/27/1 53/28/1
f 73/29/1 54/30/1 13/31/1 29/32/1
f 74/33/1 55/34/1 23/35/1 56/36/1
f 75/37/1 46/38/1 18/39/1 57/40/1
f 76/41/1 58/42/1 20/43/1 36/44/1
f 77/45/1 59/46/1 24/47/1 60/48/1
f 78/49/1 35/50/1 19/51/1 61/52/1
f 79/53/1 62/54/1 21/55/1 37/56/1
f 80/57/1 63/58/1 25/59/1 64/60/1
f 81/61/1 32/62/1 16/63/1 65/64/1
f 50/18/1 66/1/1 33/4/1 17/19/1
f 22/23/1 53/28/1 66/1/1 50/18/1
f 53/28/1 12/27/1 28/2/1 66/1/1
f 54/30/1 67/5/1 41/8/1 13/31/1
f 23/35/1 57/40/1 67/5/1 54/30/1
f 57/40/1 18/39/1 34/6/1 67/5/1
f 58/42/1 68/9/1 48/12/1 20/43/1
f 24/47/1 61/52/1 68/9/1 58/42/1
f 61/52/1 19/51/1 47/10/1 68/9/1
f 62/54/1 69/13/1 49/16/1 21/55/1
f 25/59/1 65/64/1 69/13/1 62/54/1
f 65/64/1 16/63/1 44/14/1 69/13/1
f 34/6/1 70/17/1 45/20/1 8/7/1
f 18/39/1 52/24/1 70/17/1 34/6/1
f 52/24/1 22/23/1 50/18/1 70/17/1
f 46/38/1 71/21/1 52/24/1 18/39/1
f 9/11/1 37/56/1 71/21/1 46/38/1
f 37/56/1 21/55/1 51/22/1 71/21/1
f 51/22/1 72/25/1 53/28/1 22/23/1
f 21/55/1 49/16/1 72/25/1 51/22/1
f 49/16/1 7/15/1 40/26/1 72/25/1
f 30/65/1 73/29/1 29/32/1 3/66/1
f 14/67/1 56/36/1 73/29/1 30/65/1
f 56/36/1 23/35/1 54/30/1 73/29/1
f 42/68/1 74/33/1 56/36/1 14/67/1
f 5/69/1 36/44/1 74/33/1 42/68/1
f 36/44/1 20/43/1 55/34/1 74/33/1
f 55/34/1 75/37/1 57/40/1 23/35/1
f 20/43/1 48/12/1 75/37/1 55/34/1
f 48/12/1 9/11/1 46/38/1 75/37/1
f 38/70/1 76/41/1 36/44/1 5/69/1
f 10/71/1 60/48/1 76/41/1 38/70/1
f 60/48/1 24/47/1 58/42/1 76/41/1
f 26/72/1 77/45/1 60/48/1 10/71/1
f 1/73/1 31/74/1 77/45/1 26/72/1
f 31/74/1 15/75/1 59/46/1 77/45/1
f 59/46/1 78/49/1 61/52/1 24/47/1
f 15/75/1 43/76/1 78/49/1 59/46/1
f 43/76/1 6/77/1 35/50/1 78/49/1
f 47/10/1 79/53/1 37/56/1 9/11/1
f 19/51/1 64/60/1 79/53/1 47/10/1
f 64/60/1 25/59/1 62/54/1 79/53/1
f 35/50/1 80/57/1 64/60/1 19/51/1
f 6/77/1 39/78/1 80/57/1 35/50/1
f 39/78/1 11/79/1 63/58/1 80/57/1
f 63/58/1 81/61/1 65/64/1 25/59/1
f 11/79/1 27/80/1 81/61/1 63/58/1
f 27/80/1 2/81/1 32/62/1 81/61/1
