# Blender v2.71 (sub 0) OBJ File: 'wall.blend'
# www.blender.org
mtllib wall.mtl
o Cube_Cube.001
v -0.250000 0.000000 2.500000
v -0.250000 0.000000 -2.500000
v 0.250000 0.000000 -2.500000
v 0.250000 0.000000 2.500000
v -0.250000 3.000000 2.500000
v -0.250000 3.000000 -2.500000
v 0.250000 3.000000 -2.500000
v 0.250000 3.000000 2.500000
vt 0.000000 0.000000
vt 1.000000 0.000000
vt 1.000000 1.000000
vt 0.000000 1.000000
vt 0.001144 0.001144
vt 0.998856 0.001144
vt 0.998856 0.998856
vt 0.001144 0.998856
vt 0.999955 0.200027
vt 0.000045 0.200027
vt 0.258051 0.258051
vt 0.741949 0.258051
vt 0.741949 0.741949
vt 0.258051 0.741949
vn -1.000000 0.000000 0.000000
vn 0.000000 0.000000 -1.000000
vn 1.000000 0.000000 0.000000
vn 0.000000 0.000000 1.000000
vn 0.000000 -1.000000 0.000000
vn 0.000000 1.000000 0.000000
usemtl None
s off
f 5/1/1 6/2/1 2/3/1 1/4/1
f 6/1/2 7/2/2 3/3/2 2/4/2
f 7/1/3 8/2/3 4/3/3 3/4/3
f 8/5/4 5/6/4 1/7/4 4/8/4
f 1/1/5 2/2/5 3/9/5 4/10/5
f 8/11/6 7/12/6 6/13/6 5/14/6
